<svg xmlns="http://www.w3.org/2000/svg" viewBox="0 0 263 263">
    <defs>
        <style>
            .cls-1,.cls-2,.cls-10,.cls-3,.cls-4,.cls-5,.cls-6,.cls-7,.cls-8,.cls-9{fill:none;stroke:#fff;}
            .cls-1,.cls-10,.cls-2,.cls-3,.cls-4,.cls-5,.cls-6,.cls-7,.cls-8{stroke-linecap:round;}
            .cls-1,.cls-10,.cls-2,.cls-3,.cls-4,.cls-5{stroke-linejoin:round;}
            .cls-1,.cls-5{stroke-width:4.01px;}
            .cls-2,.cls-3,.cls-6,.cls-9{stroke-width:4.01px;}
            .cls-10,.cls-3,.cls-5,.cls-8{fill-rule:evenodd;}
            .cls-4,.cls-7{stroke-width:4.01px;}
            .cls-6,.cls-7,.cls-8,.cls-9{stroke-miterlimit:22.93;}
            .cls-8{stroke-width:3.97px;}
            .cls-10{stroke-width:5.21px;}
            .bg{fill:#79b4dc;stroke:#fff}
        </style>
    </defs>
    <title>Ресурс 3</title>
    <g id="Слой_2">
        <g id="_1">
            <g id="шапка">
                <circle class="cls-2 bg" cx="131.87" cy="131.87" r="129.86" transform="translate(-54.62 131.87) rotate(-45)" />
                <line class="cls-1" x1="9.12" y1="173.84" x2="255.09" y2="173.84"/>
                <polyline class="cls-3" points="99.48 133.81 64.08 110.41 3.65 151.79"/>
                <polyline class="cls-3" points="48.95 121.43 59.05 128.49 64.44 123.33 69.82 128.5 80.58 121.42"/>
                <polyline class="cls-3" points="70.61 173.04 100.7 140.31 131.53 106.78 162.36 140.31 192.6 173.2"/>
                <polyline class="cls-3" points="115.91 124.2 126.01 131.26 131.41 126.11 136.78 131.28 147.55 124.2"/>
                <polyline class="cls-3" points="224.67 147.02 215.77 140.21 207.31 147.11"/>
                <line class="cls-4" x1="215.8" y1="140.49" x2="215.8" y2="173.67"/>
                <polyline class="cls-3" points="224.67 155.94 215.77 149.13 207.31 156.03"/>
                <polyline class="cls-3" points="224.48 164.86 215.58 158.06 207.13 164.95"/>
                <polyline class="cls-3" points="39.89 148.28 48.8 141.47 57.25 148.37"/>
                <line class="cls-2" x1="48.76" y1="141.75" x2="48.76" y2="173.41"/>
                <polyline class="cls-3" points="39.89 157.2 48.8 150.39 57.25 157.29"/>
                <polyline class="cls-3" points="40.08 166.12 48.98 159.31 57.44 166.21"/>
                <circle class="cls-2" cx="131.87" cy="131.87" r="129.86" transform="translate(-54.62 131.87) rotate(-45)"/>
                <polyline class="cls-3" points="163.97 133.66 197.98 110.41 259.97 153.28"/>
                <polyline class="cls-5" points="182.88 122.22 192.97 129.28 198.37 124.12 203.75 129.29 214.51 122.21"/>
                <path class="cls-3" d="M90.91,118.14c10.77-42.55,69.12-41.71,81.06.08"/>
                <line class="cls-2" x1="117.57" y1="81.51" x2="104.51" y2="52.44"/>
                <line class="cls-2" x1="90.81" y1="99.05" x2="65.64" y2="84.37"/>
                <line class="cls-2" x1="173.2" y1="99.49" x2="199.05" y2="84.39"/>
                <line class="cls-6" x1="48.31" y1="32.89" x2="102.35" y2="87.86"/>
                <line class="cls-7" x1="214" y1="33.94" x2="160.1" y2="88.64"/>
                <path class="cls-8" d="M131.44,2V80.35"/>
                <path class="cls-5" d="M26.2,104.9H48.61c3,0,4.87.36,7.35-1.81,6.11-5.37.46-18-9.93-12-1.2-12.4-17.15-9.69-17.1-.15-11.62-5.9-15.65,7.73-9,12.65C22.16,105.23,23.6,104.9,26.2,104.9Z"/>
                <line class="cls-2" x1="147.04" y1="81.78" x2="160.1" y2="52.71"/>
                <circle class="cls-9" cx="131.87" cy="132.03" r="129.86" transform="translate(-54.74 131.91) rotate(-45)"/>
                <path class="cls-5" d="M215,104.9h22.4c3,0,4.88.36,7.35-1.81,6.12-5.37.46-18-9.93-12-1.19-12.4-17.15-9.69-17.09-.15-11.62-5.9-15.65,7.73-9,12.65C210.94,105.23,212.39,104.9,215,104.9Z"/>
                <path class="cls-10" d="M36,219.05c.74-.75,2.28-2.19,3.85-4,3-3.34,5.3-7,8.18-10.23,5.62-6.33,11.16-9.47,21.47-7.82-5.59,4-8.68,10.08-7.23,15.92C63.53,218,68.8,224,76.36,223.25c5.27-.57,8.84-4.63,11.53-7.85,7.75-9.27,14.27-21.57,32.17-18.52-7.24,5.46-8.72,11.83-7,16.94a14,14,0,0,0,4.61,6.5,15.49,15.49,0,0,0,17.28,1.54,24.11,24.11,0,0,0,5.11-3.94c8.28-8.07,13.24-23.06,30.24-21.23.34,0,.79.11,2.08.3a26.78,26.78,0,0,0-3.23,2.87c-10.85,11,.12,26,11.6,23.1a13.48,13.48,0,0,0,4.31-2,11.18,11.18,0,0,0,1.75-1.39,69.06,69.06,0,0,0,4.87-5.16c1.46-1.77,2.8-3.57,3.59-4.63.21-.27,2.09-2.88,4.17-5.17,1.26-1.38,2.6-2.64,3.44-3.41a28.41,28.41,0,0,1,6.06-4,22.69,22.69,0,0,1,4.92-1.5,32.78,32.78,0,0,1,5.63-.19,34.84,34.84,0,0,1,3.71.42,17.6,17.6,0,0,0-3.34,2.73,13.4,13.4,0,0,0-4,13.69,12.46,12.46,0,0,0,3.44,5.88,26,26,0,0,0,5.18,3.52"/>
            </g>
        </g>
    </g>
</svg>