<svg xmlns="http://www.w3.org/2000/svg" viewBox="0 0 266.05 196.37">
    <defs>
        <style>
            .cls-1{fill:#a5d5fa;}
            .cls-1,.cls-2,.cls-3,.cls-4{fill-rule:evenodd;}
            .cls-2{fill:#52abe3;}
            .cls-3{fill:#ff9100;}
            .cls-4{fill:#fcd487;}
        </style>
    </defs>
    <title>Ресурс 9</title>
    <g id="Слой_2">
        <g id="_1">
            <g id="основная_информация">
                <g id="скидки_и_акции">
                    <g id="_1-2">
                        <polygon class="cls-1" points="19 61.34 118.37 24.88 98.52 56.86 125.35 82.06 105.47 124.14 118.57 151.18 97.21 170.73 0 196.37 19 61.34"/>
                        <polygon class="cls-2" points="31.23 91.37 55.92 64.95 70.8 59.38 66.89 162.95 51.18 166.16 53.95 89.45 37.08 106.73 31.23 91.37"/>
                        <polygon class="cls-2" points="100.79 53.21 86.09 59.92 80.04 87.58 77.75 148.33 96.75 160.25 114.28 155.1 118.57 151.18 105.47 124.14 125.35 82.06 98.52 56.86 100.79 53.21"/>
                        <polygon class="cls-1" points="110.16 67.79 97.86 72.66 96.92 97.55 95.67 130.73 99.14 141.98 112.02 137.66 105.47 124.14 114.17 105.73 115.85 73.13 110.16 67.79"/>
                        <polygon class="cls-1" points="155.2 10.54 137.95 48.09 165.95 72.89 137.96 120.75 147.43 147.77 129.96 169.93 254.35 192.9 266.05 36.24 155.2 10.54"/>
                        <polygon class="cls-2" points="141.98 41.88 154.04 49.79 153.49 64.53 137.91 50.74 141.98 41.88"/>
                        <polygon class="cls-2" points="148.91 102.02 143.15 135.57 137.96 120.75 148.91 102.02"/>
                        <polygon class="cls-2" points="168.21 153.48 166.7 118.66 176.7 56.77 194.07 44.66 231.25 53.15 238.66 80.31 227.68 147.85 211.52 166.84 176.41 160.38 168.21 153.48"/>
                        <polygon class="cls-1" points="194.71 69.76 187 119.82 189.57 142.01 204.21 144.34 213.52 122.25 216.56 81.29 214.13 65.79 200.71 62.47 194.71 69.76"/>
                        <polygon class="cls-3" points="91.33 42.37 112.1 82.04 60.1 89.78 111.28 103.67 87.14 147.34 136.55 115.11 152.97 171.49 157.03 111.14 185.34 159.52 181.19 106.96 233.79 120.28 172.33 85.16 240.81 59.65 166.41 69.44 165.78 20.7 149.55 61.16 128.87 0 123.92 65.52 91.33 42.37"/>
                        <polygon class="cls-4" points="139.19 60.66 138.2 77.83 122.61 76.58 135.72 87.26 115.73 96.56 137.51 96.83 146.84 114.75 152.42 95.86 171.39 98.29 154.5 85.43 160.49 67.79 149.56 75.33 139.19 60.66"/>
                    </g>
                </g>
            </g>
        </g>
    </g>
</svg>