<svg xmlns="http://www.w3.org/2000/svg" viewBox="0 0 149.31 184.86">
  <defs>
    <style>
      .cls-1{fill:#52abe3;}
      .cls-1,.cls-3,.cls-4,.cls-5,.cls-6{fill-rule:evenodd;}
      .cls-2,.cls-5{fill:#ff9500;}
      .cls-3{fill:#a5d5fa;}
      .cls-4{fill:#dce5e8;}
      .cls-6{fill:#fff;}
    </style>
  </defs>
  <g>
    <polygon class="cls-1" points="5.4 31.86 4.84 184.02 145.56 184.86 145.56 31.86 5.4 31.86"/>
    <rect class="cls-2" x="1.55" width="147.76" height="31.86"/>
    <polygon class="cls-3" points="4.84 31.86 0 175.08 94.5 175.08 145.56 137.09 145.56 31.86 4.84 31.86"/>
    <polygon class="cls-4" points="51.34 16.8 56.15 21.38 60.53 16.19 55.83 11.78 51.34 16.8"/>
    <polygon class="cls-5" points="24.18 77.9 34.34 83.36 41.73 69.62 53.96 66.44 62.54 76.96 58.99 93.28 32.5 117.33 24.09 133.78 24.09 145.73 78.59 145.73 78.59 133.51 40.87 133.51 46.2 120.95 71.56 100.85 76.54 82.61 74 68.26 61.87 54.7 42.56 55.15 31.3 63.46 24.18 77.9"/>
    <polygon class="cls-5" points="84.97 79.92 91.2 89.26 110.89 74.63 110.89 144.64 123.27 144.64 123.5 54.7 113 54.7 84.97 79.92"/>
    <polygon class="cls-6" points="105.87 133.44 145.56 137.09 94.5 175.08 105.87 133.44"/>
    <polygon class="cls-4" points="95.37 16.16 100.18 20.73 104.56 15.54 99.86 11.13 95.37 16.16"/>
  </g>
</svg>