<svg xmlns="http://www.w3.org/2000/svg" viewBox="0 0 502.3 655">
  <defs>
    <style>
      .cls-1{fill:#3a7b9e;}
      .cls-1,.cls-10,.cls-11,.cls-12,.cls-13,.cls-14,.cls-15,.cls-16,.cls-17,.cls-18,.cls-19,.cls-2,.cls-20,.cls-21,.cls-22,.cls-23,.cls-24,.cls-3,.cls-4,.cls-5,.cls-6,.cls-7,.cls-8,.cls-9{fill-rule:evenodd;}
      .cls-2{fill:#4289a5;}
      .cls-3{fill:#4c9eb5;}
      .cls-4{fill:#2f7092;}
      .cls-5{fill:#bbccd3;}
      .cls-6{fill:#52abe3;}
      .cls-7{fill:#0d3750;}
      .cls-8{fill:#3e7f9b;}
      .cls-9{fill:#ff9500;}
      .cls-10{fill:#cb6606;}
      .cls-11{fill:#fcd487;}
      .cls-12{fill:#1c5170;}
      .cls-13{fill:#0d3f5a;}
      .cls-14{fill:#092a45;}
      .cls-15{fill:#1c516e;}
      .cls-16{fill:#8c4503;}
      .cls-17{fill:#e68705;}
      .cls-18{fill:#a5d5fa;}
      .cls-19{fill:#4c8cac;}
      .cls-20,.cls-24{fill:#dce5e8;}
      .cls-21{fill:#b9d0d9;}
      .cls-22{fill:#93b7c4;}
      .cls-23{fill:#e6c587;}
      .cls-24{stroke:#2f7092;stroke-miterlimit:22.93;stroke-width:0.22px;}
    </style>
  </defs>
  <g>
    <polygon class="cls-1" points="1.22 73.01 225.66 0 455.16 7.03 501.67 113.01 455.16 157.01 1.22 208.01 1.22 73.01"/>
    <polygon class="cls-2" points="473.06 139.78 455.16 336.89 1.22 361.01 1.31 207.63 300.81 108.28 473.06 139.78"/>
    <polygon class="cls-3" points="1.26 284.32 277.5 251.45 456.9 317.74 455.16 415.83 0.37 437.08 1.26 284.32"/>
    <polygon class="cls-4" points="1.22 518.46 0.37 419.08 89.55 391.08 125.55 402.76 227.33 357.58 267.55 357.58 318.55 292.15 340.05 287.58 359.05 235.83 391.55 223.58 400.55 249.76 430.55 258.58 468.15 335.74 500.94 536.41 1.22 518.46"/>
    <polygon class="cls-5" points="130.01 238.83 165.2 231.92 177.68 244.57 221.23 106.53 236.91 90.81 246.76 95.56 336.3 326.97 369.16 336.79 455.16 536.42 1.22 537.38 130.01 238.83"/>
    <polygon class="cls-6" points="224.39 106.53 217.36 260.61 174.81 351.79 206.79 536.95 1.22 536.97 130.01 238.83 165.2 231.92 177.68 244.57 221.36 106.16 225.62 102.12 224.39 106.53"/>
    <polygon class="cls-7" points="489.29 536.48 500.94 536.41 496.59 509.81 477.31 511.08 462.12 495.89 442.31 495.89 423.81 505.3 388.62 495.89 379.31 481.89 367.14 478.07 331.15 481.42 225.62 518.46 194.15 502.35 170.38 510.48 100.41 516.08 83.82 516.48 63.03 499.7 27.75 489.39 1.05 498.45 1.22 537.65 489.29 536.48"/>
    <polygon class="cls-8" points="214.94 458.14 218.94 458.14 205.28 501.42 213.72 498.28 194.15 536.88 255.55 536.88 237.74 498.2 245.42 500.66 233.44 457.53 236.59 457.76 226.01 419.42 214.94 458.14"/>
    <polygon class="cls-8" points="296.22 412.16 302.52 412.16 280.94 480.56 294.28 475.59 263.36 536.59 360.39 536.59 332.25 475.47 344.38 479.35 325.45 411.19 330.43 411.55 315.97 336.71 296.22 412.16"/>
    <polygon class="cls-9" points="209.14 536.88 215.08 510.48 253.13 449.82 262.55 461.25 238.96 536.79 209.14 536.88"/>
    <polygon class="cls-9" points="263.04 536.83 308.04 536.83 303.05 510.42 262.55 461.25 252.78 463.87 263.04 536.83"/>
    <polygon class="cls-10" points="215.08 510.48 210.4 510.03 250.2 446.04 253.13 449.82 215.08 510.48"/>
    <polygon class="cls-8" points="350.83 463.26 354.54 463.26 341.83 503.56 349.69 500.63 331.47 536.56 388.62 536.56 372.05 500.56 379.19 502.84 368.05 462.69 370.98 462.9 361.12 427.22 350.83 463.26"/>
    <polygon class="cls-11" points="250.2 446.04 341.81 445.93 394.41 510.23 303.47 510.83 250.2 446.04"/>
    <polygon class="cls-10" points="303.05 510.42 308.04 536.83 391.14 536.47 390.27 510.23 303.05 510.42"/>
    <polygon class="cls-12" points="25.95 443.3 30.7 443.3 14.45 494.79 24.49 491.05 1.22 536.97 74.25 536.97 53.07 490.95 62.2 493.88 47.96 442.57 51.7 442.84 39.11 397.24 25.95 443.3"/>
    <polygon class="cls-13" points="39.11 397.24 34 439.01 37.73 439.01 26.47 487.48 32.79 484.93 24.92 536.97 1.22 536.97 24.49 491.05 14.45 494.79 30.7 443.3 25.95 443.3 39.11 397.24"/>
    <polygon class="cls-14" points="278.7 243.55 276.31 259.35 267.96 279.96 269.28 281.28 276.7 277.34 274.71 286.3 254.26 316.89 254.93 325.47 276.31 319.11 275.52 324.99 243.21 359.9 242.55 380.5 277.01 367.05 276.84 372.21 237.14 395.96 234.71 430.56 277.02 408.28 277.06 446.01 283.15 446 283.15 408.44 326.42 430.64 321.78 396.12 283.59 372.06 283.39 367.08 316.69 384.73 312.6 357.09 282.7 325.19 281.96 319 301.77 325.94 302.59 317.19 282.25 286.44 281.39 277.64 288.62 281.5 289.81 279.03 284.26 259.85 281.39 241.09 278.7 243.55"/>
    <polygon class="cls-15" points="281.31 259.35 275.53 277.96 279.45 276.6 288.62 281.5 289.81 279.03 284.05 258.46 281.39 241.09 280.05 242.32 281.31 259.35"/>
    <polygon class="cls-15" points="282.25 286.44 278.55 285.26 277.04 295.82 279.08 306.14 301.77 325.94 302.59 317.19 282.25 286.44"/>
    <polygon class="cls-15" points="282.33 322.09 278.93 324.33 277.42 351.63 284.22 355.53 295.72 373.61 316.69 384.73 312.86 357.09 282.81 325.3 282.33 322.09"/>
    <polygon class="cls-15" points="280.05 369.82 321.78 396.12 325.25 421.9 297.05 404.03 285.97 384.73 277.85 375.78 280.05 369.82"/>
    <polygon class="cls-16" points="253.13 462.04 238.87 536.88 263.04 536.83 253.13 462.04"/>
    <polygon class="cls-14" points="351.88 299.47 349.49 315.27 341.14 335.88 342.46 337.2 349.89 333.26 347.89 342.22 327.44 372.81 328.12 381.39 349.49 375.03 348.71 380.91 316.39 408.07 315.97 435.54 350.84 419.96 350.24 537.38 356.34 537.37 356.56 419.75 389.87 436.9 385.78 413.01 355.89 381.11 355.15 374.92 374.95 381.86 375.78 373.11 355.43 342.36 354.58 333.56 361.81 337.42 363 334.95 357.44 315.77 354.58 297.01 351.88 299.47"/>
    <polygon class="cls-15" points="354.49 315.27 348.71 333.88 352.64 332.52 361.81 337.42 363 334.95 357.23 314.38 354.58 297.01 353.23 298.24 354.49 315.27"/>
    <polygon class="cls-15" points="355.43 342.36 351.73 341.18 350.22 351.74 352.26 362.06 374.95 381.86 375.78 373.11 355.43 342.36"/>
    <polygon class="cls-15" points="355.52 378.01 352.11 380.25 350.6 407.55 356.03 407.95 367.53 425.39 389.87 436.9 386.04 413.01 355.99 381.22 355.52 378.01"/>
    <polygon class="cls-8" points="112.12 430.07 117.55 430.07 98.96 488.98 110.45 484.7 83.82 537.23 167.38 537.23 143.15 484.59 153.59 487.94 137.29 429.24 141.58 429.55 127.17 377.38 112.12 430.07"/>
    <polygon class="cls-14" points="76.67 332.1 74.28 347.89 65.93 368.51 67.25 369.83 74.68 365.88 72.68 374.85 52.23 405.44 52.91 414.01 74.28 407.65 73.5 413.54 41.18 440.69 40.76 468.17 75.63 452.59 75.03 537.23 81.12 537.23 81.34 452.37 114.66 469.52 110.57 445.63 80.67 413.73 79.94 407.54 99.74 414.48 100.56 405.73 80.22 374.98 79.36 366.19 86.59 370.04 87.78 367.57 82.23 348.39 79.36 329.63 76.67 332.1"/>
    <polygon class="cls-15" points="79.28 347.89 73.5 366.51 77.42 365.14 86.59 370.04 87.78 367.57 82.02 347 79.36 329.63 78.02 330.86 79.28 347.89"/>
    <polygon class="cls-15" points="80.22 374.98 76.52 373.8 75.01 384.37 77.05 394.68 99.74 414.48 100.56 405.73 80.22 374.98"/>
    <polygon class="cls-15" points="80.31 410.64 76.9 412.87 75.39 440.17 80.82 440.57 92.31 458.02 114.66 469.52 110.83 445.63 80.78 413.84 80.31 410.64"/>
    <polygon class="cls-8" points="145.97 450.08 150.39 450.08 135.25 498.07 144.61 494.58 123.05 537.12 190.99 537.38 171.25 494.5 179.75 497.22 166.48 449.4 169.97 449.65 158.23 407.15 145.97 450.08"/>
    <polygon class="cls-14" points="116.43 537.2 119.57 531.85 122.64 531.85 124.52 527.25 127.77 525.79 155.17 525.79 158.24 525.79 161.78 529.34 161.78 531.17 164.04 531.17 167.38 535.35 167.38 537.29 116.43 537.2"/>
    <polygon class="cls-9" points="133.28 525.79 123.14 515.66 125.08 500.91 133.28 487.6 136.35 495.79 136.35 481.28 142.02 466.94 143.86 477.15 154.79 494.43 161.44 505.52 161.44 516.62 152.27 525.79 133.28 525.79"/>
    <polygon class="cls-17" points="137.46 525.79 131.4 518.67 131.4 511.58 134.43 505.1 137.46 511.93 139.72 514.19 142.29 511.24 142.29 492.37 152.15 505 153.76 512.1 153.76 519.01 148.73 525.79 137.46 525.79"/>
    <polygon class="cls-15" points="146.76 534.8 150.82 531.6 152.4 531.6 152.4 529.38 155.17 525.79 158.46 525.79 161.78 529.12 161.78 531.17 164.04 531.17 167.38 535.35 167.38 537.29 146.51 537.32 146.76 534.8"/>
    <polygon class="cls-14" points="152.4 531.6 161.78 531.17 157.94 535.44 157.94 537.3 156.37 537.31 156.37 535.55 152.4 531.6"/>
    <polygon class="cls-12" points="401.86 430.15 407.27 430.15 388.76 488.82 400.2 484.55 373.68 536.88 456.9 536.88 432.76 484.45 443.17 487.78 426.94 429.32 431.21 429.63 416.85 377.66 401.86 430.15"/>
    <polygon class="cls-13" points="416.85 377.66 411.03 425.26 415.29 425.26 402.45 480.49 409.65 477.58 400.69 536.88 373.68 536.88 400.2 484.55 388.76 488.82 407.27 430.15 401.86 430.15 416.85 377.66"/>
    <polygon class="cls-18" points="135.76 311.08 133.41 340.67 142.04 367.17 142.04 401.09 150.06 370.99 148.6 359.73 141.74 338.22 135.76 311.08"/>
    <polygon class="cls-18" points="139.54 269.57 137.94 287.56 143.08 307.2 144.49 319.24 146.52 322.48 147.4 307.85 139.54 269.57"/>
    <polygon class="cls-5" points="374.38 108.28 351.22 122.47 344.48 141.49 348.91 166.17 371.58 175.71 391.42 172.3 404.28 154.47 380.99 162.42 364.98 154.31 359.7 132.16 374.38 108.28"/>
    <polygon class="cls-5" points="73.64 142.95 70.75 154.85 62.08 157.83 70.58 159.87 73.64 172.7 75.91 159.94 86.14 156.81 75.8 154.54 73.64 142.95"/>
    <polygon class="cls-6" points="85.76 203.32 83.44 212.88 76.48 215.26 83.31 216.9 85.76 227.2 87.58 216.96 95.79 214.45 87.49 212.62 85.76 203.32"/>
    <polygon class="cls-5" points="306.07 36.95 302.46 51.82 291.63 55.53 302.25 58.08 306.07 74.12 308.91 58.17 321.68 54.26 308.77 51.43 306.07 36.95"/>
    <polygon class="cls-6" points="432.87 84.4 430.55 93.95 423.59 96.34 430.41 97.97 432.87 108.28 434.69 98.03 442.89 95.52 434.6 93.7 432.87 84.4"/>
    <polygon class="cls-5" points="329.88 227.2 327.83 235.65 321.68 237.76 327.71 239.2 329.88 248.31 331.49 239.25 338.75 237.03 331.41 235.42 329.88 227.2"/>
    <polygon class="cls-6" points="40.38 299.15 38.06 308.7 31.11 311.08 37.93 312.72 40.38 323.02 42.21 312.78 50.41 310.27 42.12 308.44 40.38 299.15"/>
    <polygon class="cls-4" points="1.22 536.97 500.87 536.48 495.49 564.91 331.47 565.64 321.33 579.64 415.29 579.64 392.47 601.15 258.65 601.15 254.94 605.4 252.69 608.77 409.57 608.77 428.57 608.77 420.25 617.08 415.25 622.08 276.07 622.08 202.07 622.08 196.19 628.02 261.82 628.02 247.13 642.71 220.57 642.71 213.82 651.4 169.19 651.4 176.32 644.27 192.69 644.27 197.5 639.46 149.69 639.46 106.69 639.46 122.69 631.15 156.19 631.15 163.69 625.9 90.44 625.9 112.19 616.15 178.19 616.65 183.94 610.4 28.44 610.4 40.44 600.4 85.69 600.4 95.19 593.94 56.44 593.94 65.69 587.65 177.19 587.9 228.63 587.9 237.12 581.89 97.44 581.15 107.69 572.65 210.4 572.65 216.92 566.13 22.69 566.4 34.94 554.15 98.19 554.15 103.94 549.65 1.22 549.65 1.22 536.97"/>
  </g>
</svg>