<svg xmlns="http://www.w3.org/2000/svg" viewBox="0 650 502.3 580">
  <defs>
    <style>
      .cls-1{fill:#3a7b9e;}
      .cls-1,.cls-10,.cls-11,.cls-12,.cls-13,.cls-14,.cls-15,.cls-16,.cls-17,.cls-18,.cls-19,.cls-2,.cls-20,.cls-21,.cls-22,.cls-23,.cls-24,.cls-3,.cls-4,.cls-5,.cls-6,.cls-7,.cls-8,.cls-9{fill-rule:evenodd;}
      .cls-2{fill:#4289a5;}
      .cls-3{fill:#4c9eb5;}
      .cls-4{fill:#2f7092;}
      .cls-5{fill:#bbccd3;}
      .cls-6{fill:#52abe3;}
      .cls-7{fill:#0d3750;}
      .cls-8{fill:#3e7f9b;}
      .cls-9{fill:#ff9500;}
      .cls-10{fill:#cb6606;}
      .cls-11{fill:#fcd487;}
      .cls-12{fill:#1c5170;}
      .cls-13{fill:#0d3f5a;}
      .cls-14{fill:#092a45;}
      .cls-15{fill:#1c516e;}
      .cls-16{fill:#8c4503;}
      .cls-17{fill:#e68705;}
      .cls-18{fill:#a5d5fa;}
      .cls-19{fill:#4c8cac;}
      .cls-20,.cls-24{fill:#dce5e8;}
      .cls-21{fill:#b9d0d9;}
      .cls-22{fill:#93b7c4;}
      .cls-23{fill:#e6c587;}
      .cls-24{stroke:#2f7092;stroke-miterlimit:22.93;stroke-width:0.22px;}
    </style>
  </defs>
  <g>
    <polygon class="cls-20" points="1.22 656.61 136.24 705.52 0.25 1022.95 1.22 656.61"/>
    <polygon class="cls-5" points="136.24 705.52 271.05 686.51 155.95 1086.73 0.12 1087.57 0.25 1023.04 136.24 705.52"/>
    <polygon class="cls-20" points="155.95 1086.73 298.94 1138.47 389.05 750.44 271.05 686.51 155.95 1086.73"/>
    <polygon class="cls-5" points="298.94 1138.47 434.67 1081.81 502.3 702.97 389.05 750.44 298.94 1138.47"/>
    <polygon class="cls-21" points="0.99 741.58 34.27 746.74 80.23 746.74 105.79 776.61 136.24 705.52 1.22 656.61 0.99 741.58"/>
    <polygon class="cls-9" points="189.75 1166.36 304.86 1199.13 310.74 1229.63 182.91 1229.59 189.75 1166.36"/>
    <path class="cls-9" d="M59.07,789.69,14.19,712l7.21-40,33.1-21,38.62,19.76L98.2,710.3,59.07,789.69ZM40.93,685,38.73,707l17.46,11.51L75.65,705.4,72.71,685l-15.95-8.61Z"/>
    <polygon class="cls-14" points="44.76 793.51 34.31 843.02 44.05 845.14 53.61 803.15 44.76 793.51"/>
    <polygon class="cls-14" points="34.31 851.08 46.87 896.31 55.77 888.45 44.15 852.6 34.31 851.08"/>
    <polygon class="cls-14" points="55.58 904.86 103.91 905.33 107.04 896.06 63.18 896.31 55.58 904.86"/>
    <polygon class="cls-14" points="114.31 905.33 155.65 888.89 156.48 879.14 117.11 895.59 114.31 905.33"/>
    <polygon class="cls-14" points="165.95 884.2 199.66 864.58 201.24 853.81 166.87 874.99 165.95 884.2"/>
    <polygon class="cls-21" points="381.49 783.03 331.5 783.03 283.45 792.49 250.38 827.74 228.73 884.2 243.02 900.82 258.67 943.22 271.05 1000.43 326.17 1021.22 381.49 783.03"/>
    <polygon class="cls-14" points="208.22 860.18 229.35 851.36 250.7 848.54 248.81 839.28 230.07 842.07 210.15 849.39 208.22 860.18"/>
    <polygon class="cls-14" points="259.89 846.86 300.99 845.33 304.6 837.28 260.79 838.86 259.89 846.86"/>
    <polygon class="cls-4" points="279.76 903.45 288.11 933.03 317.49 918.48 323.87 930.22 294.84 944.79 300.31 971.43 286.09 974.47 281.75 944.84 249.96 963.81 243.02 950.23 274.32 936.2 266.66 907.18 279.76 903.45"/>
    <polygon class="cls-22" points="381.49 783.03 412.32 752.19 428.12 734.07 502.3 702.97 479.83 828.83 434.67 882.8 404.49 931.11 371.11 1015.67 392.41 1053.01 332.25 1124.56 300.02 1133.79 326.17 1021.22 381.49 783.03"/>
    <polygon class="cls-14" points="303.82 845.66 347.08 856.11 352.93 847.9 320.71 840.33 303.82 845.66"/>
    <polygon class="cls-14" points="354.28 858.61 389.05 874.22 396.06 867.64 360.36 850.83 354.28 858.61"/>
    <polygon class="cls-14" points="396.32 879.07 411.67 889.74 417.94 910.93 428.21 910.56 421.92 886.1 403.4 872.16 396.32 879.07"/>
    <polygon class="cls-14" points="408.5 958.45 385.86 980.69 392.55 987.43 417.03 963.76 408.5 958.45"/>
    <polygon class="cls-14" points="345.54 978.63 315.85 951.83 306.66 956.17 337.54 984.43 345.54 978.63"/>
    <polygon class="cls-14" points="342.01 988.49 349.88 982.63 366.27 991.29 379.71 985.09 386.56 991.67 366.03 1000.43 342.01 988.49"/>
    <polygon class="cls-14" points="417.91 916.56 412 951.84 420.65 956.1 428.16 916.85 417.91 916.56"/>
    <polygon class="cls-22" points="105.79 776.61 124.68 776.61 140.06 756.96 148.15 750.37 166.06 748.21 154.71 764.83 136.24 789.69 134.09 809.46 140.06 818.82 149.43 813.58 154.71 797.08 166.87 792.49 187.86 781.51 208.22 744.21 249.24 720.37 261.31 720.37 271.05 686.51 136.24 705.52 105.79 776.61"/>
    <polygon class="cls-21" points="261.31 720.37 299.06 720.37 316.29 711.02 271.05 686.51 261.31 720.37"/>
    <polygon class="cls-21" points="0.65 871.8 36.01 907.16 36.01 939.47 0.25 1022.95 0.65 871.8"/>
    <polygon class="cls-22" points="36.01 939.47 56.95 982.91 98.2 1000.43 136.24 991.67 155.95 1000.43 167.24 1047.49 155.95 1086.73 0.12 1089.28 0.25 1022.95 36.01 939.47"/>
    <polygon class="cls-22" points="460.54 936.87 451.51 987.43 388.14 1053.01 332.25 1124.56 434.67 1081.81 460.54 936.87"/>
    <polygon class="cls-11" points="232.49 1064.96 243.22 1026.89 268.39 941.21 281.67 942.28 292.04 948.5 274.95 1018.84 284.18 1018.84 294.15 1025.56 296.46 1033.37 308.12 1030.83 315.6 1034.61 320.56 1043.72 327.1 1043.24 335.19 1048.15 337.21 1057.65 333.15 1083.51 324.41 1108.19 320.12 1127.68 306.51 1149.67 297.5 1179.52 292.6 1196.11 219.16 1174.71 230.74 1135.68 230.31 1127.2 222.37 1116.78 214.41 1100.39 208.41 1072.4 196.06 1047.69 196.17 1043.52 187.86 1025.14 194.02 1020.27 209.37 1024.35 221 1035.75 223.06 1047.63 232.49 1064.96"/><path class="cls-23" d="M275,1018.84h9.22l10,6.72,2.3,7.81,11.66-2.54,7.48,3.78,5,9.12,6.54-.49,8.09,4.91,2,9.5-4.06,25.86-8.74,24.68-4.29,19.5-13.61,22-9,29.85-4.89,16.59-9.2-2.68,15.11-50.49,14.66-18.38-.39-19.17,10.33-20.53,6.52-21.55v-11.25l-3.88-3.75H317l-1.25-3.5-1.75-3.62-7.37-4.38c-10,1.72-8.34,1.58-16,3l-.39-5.92-6.79-7.17-10.95-1Z"/>
    <polygon class="cls-4" points="56.3 944.19 68.25 1028.53 153.65 1015.86 139.4 928.08 56.3 944.19"/>
    <polygon class="cls-24" points="69.04 951.53 77.33 1003.47 140.52 993.57 132.76 939.8 69.04 951.53"/>
    <polygon class="cls-6" points="77.14 1002.45 80.52 986.22 93.83 977.89 89.89 969.54 89.33 960.72 97.39 954.91 104.14 954.91 108.27 962.97 105.83 975.91 118.58 978.68 127.95 986.78 132.89 994.77 77.33 1003.47 77.14 1002.45"/>
    <polygon class="cls-20" points="0.12 1089.28 155.95 1086.73 218.83 1109.48 222.37 1116.78 154.45 1092.85 0.11 1094.66 0.12 1089.28"/>
    <polygon class="cls-20" points="320.12 1127.68 434.67 1081.81 431.56 1090.5 315.06 1135.87 320.12 1127.68"/>
    <polygon class="cls-20" points="298.94 783.03 275.61 800.84 275.61 823.52 288.8 833.27 316.29 833.27 330.74 823.52 330.74 798.02 316.29 783.03 297.47 781.56 298.94 783.03"/><path class="cls-4" d="M244.45,793.83l15.95,66.45,103.1-33.45-17.84-63.38-28.22,2.16-15.56-11.47-28,9.89L269,781.93l-24.57,11.9Zm45.12-.25,15.48-5.34,13.16,6.08,5.19,13.8L318,822.84,302.1,828l-14.54-5.79-5.07-15.45Z"/>
    <polygon class="cls-23" points="270.36 946.33 287.82 951.71 275.7 962.12 270.36 946.33"/>
    <polygon class="cls-23" points="188.37 1025.06 206.13 1028.91 214.82 1042.54 216.51 1049.54 227.95 1068.07 232.49 1064.96 223.06 1047.63 221 1035.75 209.37 1024.35 194.02 1020.27 188.37 1025.06"/>
  </g>
</svg>