<svg xmlns="http://www.w3.org/2000/svg" viewBox="0 0 276.07 203.24"><defs><style>.cls-1{fill:#cb6606;}.cls-1,.cls-10,.cls-2,.cls-3,.cls-4,.cls-5,.cls-6,.cls-7,.cls-8,.cls-9{fill-rule:evenodd;}.cls-2{fill:#fcd487;}.cls-4{fill:#8c4503;}.cls-5{fill:#52abe3;}.cls-6{fill:#e6c587;}.cls-7{fill:#fff;}.cls-8{fill:#a5d5fa;}.cls-9{fill:#ff9500;}.cls-10{fill:#69a4c8;}</style></defs><title>Ресурс 11</title><g id="Слой_2" data-name="Слой 2"><g id="_1" data-name="1"><g id="основная_информация" data-name="основная информация"><g id="скидки_и_акции" data-name="скидки и акции"><g id="_3" data-name="3"><polygon class="cls-1" points="117.29 93 114.83 119.69 95.73 139.22 67 141.66 46.03 135.64 32.11 112.93 32.11 85.19 35.28 36.85 44.44 24.33 42.27 6.91 60.43 5.78 61.33 0 92.39 11.31 93.96 7.08 102.06 15.06 105.06 9.92 118.43 22.25 122.75 32.23 119.43 65.05 117.29 93"/><polygon class="cls-2" points="57.7 39.03 46.66 49.83 40.52 64.52 35.28 90.72 42 102.83 59.56 99.63 67.97 104.55 76.97 99.75 101.14 104.55 113.1 90.8 113.1 68.02 104.44 45.24 95.4 36.85 82.09 42.8 66.89 42.8 57.7 39.03"/><polygon class="cls-1" points="65.59 56.63 65.59 65.25 54.12 67.37 44.78 70.7 43.39 66.64 52.73 59.72 65.59 56.63"/><polygon class="cls-1" points="84.18 56.63 83.69 64.6 95.32 68.1 104.58 73.47 107.77 68.75 97.29 60.86 84.18 56.63"/><polygon class="cls-3" points="42.33 83.39 48.63 77.78 58.71 80.59 60.43 87.63 55.91 83.49 48.21 82.01 42.33 83.39"/><polygon class="cls-3" points="83.69 86.31 90.7 79.35 98.94 79.35 105.82 87.63 98.45 83.49 90.17 83.49 83.69 86.31"/><polygon class="cls-4" points="49.22 109.42 94.43 109.42 91.57 118.91 83.69 125.69 60.43 125.69 51.22 117.56 49.22 109.42"/><path class="cls-5" d="M0,187.5c0-2.61,13-23.26,13-23.26l29.38-10.5,18.1-6.84,10.95,6.84H82.74l11.69-9.28,47.29,22.91,15.07,22.9-27.12,6.29L21.47,196Z"/><polygon class="cls-6" points="53.15 109.42 62.73 119.81 81.29 120.17 85.71 115.14 90.73 109.42 53.15 109.42"/><polygon class="cls-7" points="56.84 109.42 63.39 116.44 79.26 116.44 85.92 109.42 56.84 109.42"/><path class="cls-8" d="M276.07,190.27c0-2.6-15.73-26-15.73-26L231,153.74l-18.1-6.84-11,6.84H190.56l-11.7-9.28-47.28,22.91-24.49,32.32,36.54,3.55,111.19-.86Z"/><polygon class="cls-9" points="156.14 92.87 158.6 119.56 167.3 159.22 186.33 173.42 224.25 178.21 259.38 151.49 242.78 133.67 241.33 112.8 241.33 85.06 233.2 47.42 214.73 31.68 169 35.92 152.56 63.48 156.14 92.87"/><polygon class="cls-2" points="118.02 83.49 121.77 80.76 129.67 82.7 129.67 96.58 121.48 107.16 116.06 106.35 118.02 83.49"/><polygon class="cls-2" points="32.11 82.7 27.2 82.7 22.7 90.44 27.4 102.48 32.11 104.59 32.11 82.7"/><polygon class="cls-2" points="58.29 139.16 60.43 146.9 71.38 153.74 82.74 153.74 94.43 144.47 95.73 139.22 67 141.66 58.29 139.16"/><polygon class="cls-2" points="216.72 42.8 232.77 68.06 238.01 92 233.59 100.31 210.66 98.75 210.42 103.91 197.44 103.58 169.78 102.14 160.2 92.07 160.2 71.26 170.35 50.45 177.89 42.8 192.63 48.97 205.28 48.75 216.72 42.8"/><polygon class="cls-9" points="207.71 56.63 207.71 65.25 219.17 67.37 228.51 70.7 229.9 66.64 220.57 59.72 207.71 56.63"/><polygon class="cls-9" points="189.11 56.63 189.6 65.35 177.97 68.1 168.72 73.47 165.52 68.75 176.01 60.86 189.11 56.63"/><polygon class="cls-2" points="155.27 83.49 151.53 80.76 143.63 82.7 143.63 96.58 151.82 107.16 157.53 107.94 155.27 83.49"/><polygon class="cls-2" points="240.89 83.02 246.08 82.69 250.6 90.44 245.89 103.3 241.33 105.01 241.33 85.06 240.89 83.02"/><polygon class="cls-7" points="164.7 90.62 175.91 95.61 187.38 93.96 192.5 88.48 183.12 83.49 174.85 83.49 164.7 90.62"/><polygon class="cls-3" points="174.85 83.49 176.99 91.38 182.81 90.78 183.12 83.49 174.85 83.49"/><polygon class="cls-7" points="208.21 89.55 219.2 93.37 230.38 91.76 233.06 83.62 227.27 82.35 217.85 82.35 208.21 89.55"/><polygon class="cls-3" points="217.85 82.35 219.53 88.44 226.16 88.15 227.27 82.35 217.85 82.35"/><polygon class="cls-10" points="147.57 81.73 143.63 56.63 157.23 27.26 178.61 17.37 207.71 16.2 228.94 23.87 243.24 45.08 245.9 82.7 240.89 83.02 233.06 47.55 214.16 32.24 169.03 35.96 152.56 63.48 155.27 83.49 151.53 80.76 147.57 81.73"/><path class="cls-4" d="M180.11,110.39l44,1.07-2.84,9.4s-12.16,6.73-12.62,6.57-15.62,0-15.62,0l-10.61-8.52Z"/><polygon class="cls-7" points="186.19 110.54 187.94 118.18 194.73 122.7 201.28 122.7 202.56 122.7 203.83 122.7 209.05 122.7 217.63 117.49 219.9 111.36 186.19 110.54"/></g></g></g></g></g></svg>