<svg xmlns="http://www.w3.org/2000/svg" viewBox="0 0 366.64 380.31"><defs><style>.cls-1,.cls-10,.cls-11,.cls-2,.cls-3,.cls-4,.cls-6,.cls-7,.cls-8,.cls-9{fill:none;}.cls-1,.cls-10,.cls-11,.cls-2,.cls-3,.cls-4,.cls-5,.cls-6,.cls-7,.cls-8,.cls-9{stroke:#fff;}.cls-1,.cls-11,.cls-2,.cls-3,.cls-4,.cls-6,.cls-7,.cls-8,.cls-9{stroke-linecap:round;}.cls-1,.cls-11,.cls-2,.cls-3,.cls-4,.cls-6{stroke-linejoin:round;}.cls-1,.cls-6{stroke-width:4.01px;}.cls-10,.cls-2,.cls-3,.cls-7{stroke-width:4.01px;}.cls-11,.cls-12,.cls-3,.cls-5,.cls-6,.cls-9{fill-rule:evenodd;}.cls-4,.cls-8{stroke-width:4.01px;}.cls-12,.cls-5{fill:#fff;}.cls-10,.cls-5,.cls-7,.cls-8,.cls-9{stroke-miterlimit:22.93;}.cls-5{stroke-width:4.19px;}.cls-9{stroke-width:3.97px;}.cls-11{stroke-width:5.21px;}</style></defs><title>Ресурс 6</title><g id="Слой_2" data-name="Слой 2"><g id="_1" data-name="1"><g id="шапка"><line class="cls-1" x1="60.23" y1="232.51" x2="306.19" y2="232.51"/><circle class="cls-2" cx="182.97" cy="190.54" r="129.86" transform="translate(-81.14 185.19) rotate(-45)"/><polyline class="cls-3" points="150.59 192.48 115.18 169.08 54.76 210.46"/><polyline class="cls-3" points="100.05 180.1 110.15 187.16 115.55 182 120.92 187.17 131.69 180.09"/><polyline class="cls-3" points="121.72 231.71 151.81 198.98 182.64 165.45 213.46 198.98 243.71 231.87"/><polyline class="cls-3" points="167.02 182.88 177.12 189.93 182.51 184.78 187.89 189.94 198.65 182.87"/><polyline class="cls-3" points="275.77 205.69 266.87 198.88 258.42 205.78"/><line class="cls-4" x1="266.91" y1="199.16" x2="266.91" y2="232.34"/><polyline class="cls-3" points="275.77 214.61 266.87 207.8 258.42 214.7"/><polyline class="cls-3" points="275.59 223.53 266.69 216.73 258.23 223.63"/><polyline class="cls-3" points="91 206.95 99.9 200.14 108.36 207.04"/><line class="cls-2" x1="99.86" y1="200.42" x2="99.86" y2="232.08"/><polyline class="cls-3" points="91 215.87 99.9 209.06 108.36 215.96"/><polyline class="cls-3" points="91.19 224.79 100.09 217.99 108.54 224.88"/><path class="cls-5" d="M19.56,163.34a5.07,5.07,0,1,0-5.07-5.07A5.08,5.08,0,0,0,19.56,163.34Z"/><circle class="cls-2" cx="182.97" cy="190.54" r="129.86" transform="translate(-81.14 185.19) rotate(-45)"/><polyline class="cls-3" points="215.08 192.32 249.08 169.08 311.07 211.95"/><polyline class="cls-6" points="233.98 180.89 244.08 187.95 249.48 182.79 254.85 187.96 265.62 180.88"/><path class="cls-3" d="M142,176.81c10.78-42.55,69.13-41.71,81.07.08"/><line class="cls-2" x1="168.67" y1="140.18" x2="155.61" y2="111.11"/><line class="cls-2" x1="141.91" y1="157.72" x2="116.75" y2="143.04"/><line class="cls-2" x1="224.3" y1="158.16" x2="250.15" y2="143.06"/><line class="cls-7" x1="99.42" y1="91.56" x2="153.45" y2="146.53"/><line class="cls-8" x1="265.1" y1="92.61" x2="211.21" y2="147.31"/><path class="cls-9" d="M182.55,60.7V139"/><path class="cls-6" d="M77.31,163.57h22.4c3,0,4.88.36,7.35-1.81,6.12-5.37.46-17.95-9.93-12C95.94,137.35,80,140.06,80,149.6c-11.62-5.9-15.65,7.73-9,12.65C73.26,163.9,74.71,163.57,77.31,163.57Z"/><line class="cls-2" x1="198.15" y1="140.45" x2="211.21" y2="111.38"/><circle class="cls-10" cx="182.97" cy="190.7" r="129.86" transform="translate(-81.25 185.23) rotate(-45)"/><path class="cls-6" d="M266.1,163.57h22.4c3,0,4.87.36,7.35-1.81,6.11-5.37.46-17.95-9.93-12-1.2-12.4-17.15-9.69-17.1-.15-11.62-5.9-15.65,7.73-9,12.65C262.05,163.9,263.5,163.57,266.1,163.57Z"/><path class="cls-5" d="M346.91,163.34a5.07,5.07,0,1,0-5.07-5.07A5.08,5.08,0,0,0,346.91,163.34Z"/><path class="cls-11" d="M87.11,277.72c.74-.75,2.27-2.19,3.84-4,3-3.34,5.31-7,8.18-10.23,5.63-6.33,11.17-9.47,21.48-7.82-5.6,4-8.68,10.08-7.23,15.92,1.25,5.05,6.53,11.09,14.08,10.3,5.28-.56,8.85-4.63,11.53-7.85,7.76-9.27,14.28-21.57,32.18-18.52-7.25,5.46-8.72,11.83-7.06,16.94a14.07,14.07,0,0,0,4.62,6.5A15.49,15.49,0,0,0,186,280.53a24.36,24.36,0,0,0,5.11-3.94c8.28-8.07,13.24-23.06,30.24-21.23.34,0,.79.11,2.08.3a26.78,26.78,0,0,0-3.23,2.87c-10.85,11,.11,26,11.6,23.1a13.48,13.48,0,0,0,4.31-2,11.71,11.71,0,0,0,1.75-1.39,67.26,67.26,0,0,0,4.86-5.16c1.47-1.77,2.81-3.57,3.6-4.63.2-.27,2.09-2.88,4.17-5.17,1.26-1.38,2.59-2.64,3.43-3.41a28.3,28.3,0,0,1,6.07-4,22.63,22.63,0,0,1,4.91-1.5,32.84,32.84,0,0,1,5.63-.19,34.53,34.53,0,0,1,3.71.42,17.8,17.8,0,0,0-3.33,2.73,13.34,13.34,0,0,0-4,13.69,12.29,12.29,0,0,0,3.44,5.88,25.7,25.7,0,0,0,5.18,3.52"/><path class="cls-12" d="M69,92.72a10.89,10.89,0,0,1-2.8,2.39,8.8,8.8,0,0,1-2.8,1,7,7,0,0,1-2.71-.05,12,12,0,0,1-2.47-.84,16.92,16.92,0,0,1-1.77-1.09c-.67-.46-1.39-1-2.14-1.63L52,90.64c-.77-.63-1.48-1.24-2.13-1.8-.86-.75-1.73-1.53-2.6-2.36s-1.71-1.61-2.49-2.38-1.45-1.49-2-2.18A9.68,9.68,0,0,1,41.5,80.1a8.32,8.32,0,0,1-1-5,10.38,10.38,0,0,1,2.8-5.51q3.3-3.81,6.77-3.64A11.51,11.51,0,0,1,57,69.08l-3.1,4.71a7.31,7.31,0,0,0-4-2.12,3.43,3.43,0,0,0-2.91,1.27,3.83,3.83,0,0,0-.48,4.79,15,15,0,0,0,2.67,3q2.16,2.05,5.18,4.77Q56,87,57.63,88.34a14.09,14.09,0,0,0,2.75,1.86,5,5,0,0,0,2.71.43,4.09,4.09,0,0,0,2.44-1.51,3.24,3.24,0,0,0,.84-3.25,7.84,7.84,0,0,0-2.49-3.37L68.22,79q3.41,3.15,3.74,6.55t-3,7.21Zm26.85-42.4A14.75,14.75,0,0,1,91,55.68a7.81,7.81,0,0,1-5.77,1.4c-1.81-.35-3.48-1.74-5-4.15l-7-11L77.75,39,84,48.8q2.48,3.89,6,1.68a8.23,8.23,0,0,0,1.9-1.74,12.48,12.48,0,0,0,1.57-2.39L85.57,34l4.54-2.88,18,28.4-4.6,2.92L95.84,50.32Zm41.85-8.24A3.48,3.48,0,0,0,140.21,40a6.66,6.66,0,0,0,.1-3.88l5.52-.48a9.71,9.71,0,0,1-.79,7.15c-1.13,1.92-3.27,3.32-6.4,4.19a10.82,10.82,0,0,1-3.76.45,8.94,8.94,0,0,1-2.95-.73,7.4,7.4,0,0,1-2.22-1.54,9.13,9.13,0,0,1-1.51-2,16.33,16.33,0,0,1-.88-1.88c-.3-.76-.61-1.61-.92-2.54s-.6-1.87-.89-2.82-.55-1.85-.79-2.68c-.3-1.1-.6-2.2-.89-3.32s-.53-2.2-.72-3.23-.35-2-.45-2.88a10.66,10.66,0,0,1-.07-2.28,8.46,8.46,0,0,1,1.9-4.92,10.16,10.16,0,0,1,5.36-3.12q4.85-1.35,7.75.73a12,12,0,0,1,4.23,6.81l2.23,8-13.91,3.88c.41,1.45.84,2.86,1.29,4.24a15.24,15.24,0,0,0,1.33,3.1,4.06,4.06,0,0,0,4.92,1.8Zm0-15.77-.77-2.76a16.7,16.7,0,0,0-.84-2.35,5.86,5.86,0,0,0-1.19-1.82,3.64,3.64,0,0,0-1.65-1,4.38,4.38,0,0,0-2.3.11,4.57,4.57,0,0,0-2,1.17,4.07,4.07,0,0,0-1,2.51,11.27,11.27,0,0,0,.24,2.62c.21,1.07.5,2.38.89,3.93l8.66-2.42ZM130.9,6.49l-1.46-5.24L133.9,0l1.46,5.25L130.9,6.49ZM120.8,9.32l-1.47-5.25,4.53-1.27,1.46,5.25L120.8,9.32Zm60,1.67.94,28.87-5.38.18-.94-28.87-7.08.23-.16-4.77L187.8,6l.16,4.76-7.15.23Zm46,20.32a14.73,14.73,0,0,1-7.2.3,7.83,7.83,0,0,1-5-3.13c-1-1.55-1.2-3.71-.55-6.5l3-12.73,5.24,1.22-2.64,11.3q-1.05,4.49,3,5.42a8.19,8.19,0,0,0,2.57.15,12.84,12.84,0,0,0,2.81-.56l3.32-14.2,5.24,1.22-7.65,32.77-5.31-1.24,3.27-14Zm37.72,32.31,11.08-19.16-.12-.07L255.82,58.58,251.34,56l16.85-29.13,4.54,2.63-11,19,.12.07,19.57-14.1,4.65,2.69L269.21,66.32l-4.66-2.7ZM288.1,81.91l25.32-22.06L317,63.91l-11,9.58,1.52,1.74a13.42,13.42,0,0,0,1.31,1.3,5,5,0,0,0,1.68.94,5.36,5.36,0,0,0,2.16.19,7.5,7.5,0,0,0,2.71-.87l9-4.4,3.4,3.9-9.09,4.39a14.12,14.12,0,0,1-4.3,1.35,5.31,5.31,0,0,1-3.57-.73,5.06,5.06,0,0,1,.43,4,17,17,0,0,1-2.1,4.13l-6.29,9.37-3.49-4L304.79,87a10.41,10.41,0,0,0,1.36-2.53,4.85,4.85,0,0,0,.27-2.13,5.26,5.26,0,0,0-.63-1.86,9.85,9.85,0,0,0-1.21-1.7l-2-2.31L291.63,86Z"/><path class="cls-12" d="M5.07,254,32.13,244l-3.19-8.56L1.88,245.48l-1.88-5,31.53-11.76,6.95,18.64L7,259.08l-1.88-5ZM53,275.14a11.24,11.24,0,0,1,1,2,6.07,6.07,0,0,1,.4,2.68,7.93,7.93,0,0,1-1,3.14,11.9,11.9,0,0,1-3.07,3.44q-1.62,1.26-3.51,2.49c-1.25.82-2.44,1.57-3.55,2.28q-3.12,2-6,3.53a20.11,20.11,0,0,1-5.3,2.13,8.25,8.25,0,0,1-4.59-.19,7.84,7.84,0,0,1-3.81-3.45,7.45,7.45,0,0,1-1.2-3.26,6.22,6.22,0,0,1,.49-3.11l-.07-.12L9.69,294.93l-2.86-4.56,39.62-24.9L49.31,270l-2.19,1.38,0,.15a8.9,8.9,0,0,1,3.15.74A7.26,7.26,0,0,1,53,275.14Zm-5.4,1.27a4,4,0,0,0-3.08-2.09,6.09,6.09,0,0,0-3.85,1.05l-11.3,7.1a6.11,6.11,0,0,0-2.65,3,4.08,4.08,0,0,0,.64,3.7,4.5,4.5,0,0,0,1.77,1.74,3.8,3.8,0,0,0,2.47.14,15.54,15.54,0,0,0,3.58-1.41c1.4-.71,3.08-1.69,5-2.92q2.66-1.67,4.47-2.93a14.06,14.06,0,0,0,2.78-2.43,3.91,3.91,0,0,0,1-2.32,4.77,4.77,0,0,0-.87-2.59Zm9.14,55.19,3.87,3.74L84,311.15l-3.87-3.74-22.4,8.95-.1-.1L73,300.45l-3.77-3.65L45.79,321l3.72,3.6,22.54-9,.1.09L56.75,331.6ZM82.4,351l16.9-29,4.65,2.71-7.33,12.6,2,1.16a12.19,12.19,0,0,0,1.66.81,4.76,4.76,0,0,0,1.88.35,5.41,5.41,0,0,0,2.11-.51,7.52,7.52,0,0,0,2.29-1.7l7.11-7.05,4.47,2.6-7.2,7.08a14,14,0,0,1-3.63,2.66,5.36,5.36,0,0,1-3.62.45,5,5,0,0,1,1.69,3.67,17.38,17.38,0,0,1-.66,4.58l-3,10.89-4.59-2.67,2.66-9.17a10.53,10.53,0,0,0,.47-2.84,4.73,4.73,0,0,0-.43-2.11,5.06,5.06,0,0,0-1.19-1.55A9.74,9.74,0,0,0,97,342.69l-2.65-1.55-7.3,12.54L82.4,351Zm41.15,16.35a17.11,17.11,0,0,0,2.75-1.16,7,7,0,0,0,2-1.55,9.1,9.1,0,0,0,1.45-2.47,33.44,33.44,0,0,0,1.27-3.88l5.3-19.39,17.22,4.71L144.61,376l-5.19-1.42L147,346.76l-7.3-2-4.09,15a35.35,35.35,0,0,1-1.81,5.19,14.17,14.17,0,0,1-2.23,3.52,9.3,9.3,0,0,1-2.93,2.2,15.1,15.1,0,0,1-3.89,1.16l-1.24-4.5Zm65-21.73a11,11,0,0,1,4.45.56,6.7,6.7,0,0,1,2.81,2,8.6,8.6,0,0,1,1.63,3.07,20.34,20.34,0,0,1,.78,3.82c.15,1.31.27,2.7.38,4.17s.19,2.8.24,4,.08,2.56.09,3.85,0,2.6-.11,3.93a10.51,10.51,0,0,1-1.1,4.41,8.32,8.32,0,0,1-2.31,2.75,8.16,8.16,0,0,1-3,1.42,14.79,14.79,0,0,1-3.12.48,10.28,10.28,0,0,1-3.49-.4,7.84,7.84,0,0,1-2.58-1.32,7.37,7.37,0,0,1-1.76-2,9.5,9.5,0,0,1-1-2.38,22.05,22.05,0,0,1-.64-3.89c-.16-1.7-.28-3.36-.35-5l-4.22.18.63,14.91-5.37.23-1.42-33.63,5.37-.22.6,14.15,4.22-.18c0-1.81.06-3.53.12-5.15a15,15,0,0,1,.53-3.74,7.89,7.89,0,0,1,2.89-4.21,10,10,0,0,1,5.72-1.74Zm.07,5a4.52,4.52,0,0,0-2.25.71,3.85,3.85,0,0,0-1.51,2.24,13.23,13.23,0,0,0-.34,3.95c0,2,.06,4.33.12,7,.07,1.49.14,2.94.22,4.34a12.74,12.74,0,0,0,.51,3.24,4,4,0,0,0,4.29,2.95,3.76,3.76,0,0,0,2.38-1,4.87,4.87,0,0,0,1.44-2.26,5.64,5.64,0,0,0,.18-1.27c0-.62.06-1.33.05-2.14s0-1.7-.05-2.66,0-1.89-.09-2.85-.07-1.83-.11-2.78-.1-1.84-.18-2.68-.16-1.57-.23-2.23a7.24,7.24,0,0,0-.34-1.59,3.78,3.78,0,0,0-4.09-3Zm45.95,7a14.89,14.89,0,0,1-6.19,3.69,7.79,7.79,0,0,1-5.93-.36q-2.44-1.31-3.57-5.45l-3.45-12.61,5.19-1.42,3.06,11.19q1.22,4.45,5.19,3.36a8.24,8.24,0,0,0,2.33-1.09,12.88,12.88,0,0,0,2.2-1.83L229.56,339l5.19-1.42L243.62,370l-5.26,1.43-3.79-13.88Zm39.4-6.25a3.47,3.47,0,0,0,1.88-2.67,6.59,6.59,0,0,0-.92-3.77l5.21-1.91a9.74,9.74,0,0,1,1.11,7.11c-.6,2.15-2.29,4.06-5.09,5.72a10.66,10.66,0,0,1-3.51,1.41,8.94,8.94,0,0,1-3,.07,7.26,7.26,0,0,1-2.54-.91,8.8,8.8,0,0,1-2-1.52,16.83,16.83,0,0,1-1.34-1.58c-.49-.66-1-1.39-1.55-2.21s-1.07-1.65-1.6-2.49-1-1.65-1.45-2.39c-.59-1-1.16-2-1.73-3s-1.09-2-1.55-2.93-.85-1.83-1.18-2.66a10.91,10.91,0,0,1-.67-2.18,8.52,8.52,0,0,1,.56-5.24,10.1,10.1,0,0,1,4.36-4.42c2.88-1.71,5.43-2.15,7.67-1.31a12,12,0,0,1,5.86,5.47l4.25,7.14-12.42,7.38q1.15,1.94,2.35,3.76a15.64,15.64,0,0,0,2.09,2.64,4,4,0,0,0,5.23.46Zm-4.11-15.23-1.46-2.46a16.49,16.49,0,0,0-1.42-2.05,5.89,5.89,0,0,0-1.62-1.45,3.53,3.53,0,0,0-1.86-.52,4.3,4.3,0,0,0-2.18.7,4.5,4.5,0,0,0-1.65,1.65,4,4,0,0,0-.33,2.69,10.43,10.43,0,0,0,.92,2.47c.47,1,1.1,2.17,1.87,3.56l7.73-4.59Zm46.73-11.64-10.38-10.72-6.36,6.16,10.38,10.72-4,3.83-23.41-24.17,4-3.84,9.85,10.18,6.36-6.16-9.85-10.18,4-3.84,23.41,24.18-4,3.84Zm29.64-37.91,3-4.49-28.1-18.52-3,4.5,12.94,20.35-.08.11-18.37-12.1-2.89,4.38,28.1,18.51,2.85-4.32-13-20.49.07-.11,18.49,12.18Zm-29-49.52a4.56,4.56,0,0,0,1.49.05,5.58,5.58,0,0,0,1.61-.43,4.85,4.85,0,0,0,1.44-1,4,4,0,0,0,1-1.62,4.41,4.41,0,0,0,.22-2,4.7,4.7,0,0,0-.55-1.72,4.4,4.4,0,0,0-1-1.31,3.75,3.75,0,0,0-1.26-.74l1.34-4.08a11.75,11.75,0,0,1,2.41,1.51,8.6,8.6,0,0,1,2,2.39,9,9,0,0,1,1.1,3.23,8.66,8.66,0,0,1-.44,3.94,9.69,9.69,0,0,1-2.09,3.76,8.28,8.28,0,0,1-2.8,2,7.76,7.76,0,0,1-3,.62,8.81,8.81,0,0,1-2.77-.41l1.38-4.2ZM365,242.34l-21-6.9-.06.17,17.94,16.32-1.61,4.91-32-10.49,1.63-5,20.91,6.87,0-.13L333,231.85l1.68-5.11,32,10.49Z"/></g></g></g></svg>