<svg xmlns="http://www.w3.org/2000/svg" viewBox="0 0 1348.62 123"><defs><style>.cls-1{fill:#fff;}.cls-1,.cls-2,.cls-3{fill-rule:evenodd;}.cls-2{fill:#bbccd3;}.cls-3{fill:#4c8cac;}</style></defs><title>Ресурс 5</title><g id="Слой_2" data-name="Слой 2"><g id="_1" data-name="1"><g id="горы"><polygon class="cls-1" points="0 97.1 151.49 65.75 284.48 37.43 340.68 25.35 630.72 97.91 828.93 38.97 855.56 48.31 1011.04 0 1195.17 65.29 1270.37 48.14 1348.62 71.64 1348.02 123 0 123 0 97.91"/><polygon class="cls-2" points="340.66 25.36 537.07 123 630.72 97.91 340.66 25.36"/><polygon class="cls-3" points="1134.24 17.3 989.65 92.28 1020.99 103.63 1239.54 55.53 1134.24 17.3"/><polygon class="cls-3" points="244.06 33.62 349.75 83.78 97.58 64.14 244.06 33.62"/><polygon class="cls-2" points="827.74 118.5 1086.29 121.73 942.65 71.49 827.74 118.5"/></g></g></g></svg>